<svg width="60" height="60" viewBox="0 0 60 60" fill="none" xmlns="http://www.w3.org/2000/svg">
<circle opacity="0.5" cx="30" cy="30" r="30" transform="rotate(-180 30 30)" fill="black"/>
<path d="M36.2721 17.2721C37.0531 18.0531 37.0531 19.3195 36.2721 20.1005L24.9584 31.4142C24.1773 32.1953 22.911 32.1953 22.1299 31.4142C21.3489 30.6332 21.3489 29.3668 22.1299 28.5858L33.4437 17.2721C34.2247 16.491 35.491 16.491 36.2721 17.2721Z" fill="white"/>
<path d="M36.2721 17.2721C37.0531 18.0531 37.0531 19.3195 36.2721 20.1005L24.9584 31.4142C24.1773 32.1953 22.911 32.1953 22.1299 31.4142C21.3489 30.6332 21.3489 29.3668 22.1299 28.5858L33.4437 17.2721C34.2247 16.491 35.491 16.491 36.2721 17.2721Z" fill="white"/>
<path d="M36.2721 42.7279C35.491 43.509 34.2247 43.509 33.4436 42.7279L22.1299 31.4142C21.3489 30.6332 21.3489 29.3668 22.1299 28.5858C22.911 27.8047 24.1773 27.8047 24.9584 28.5858L36.2721 39.8995C37.0531 40.6805 37.0531 41.9469 36.2721 42.7279Z" fill="white"/>
<path d="M36.2721 42.7279C35.491 43.509 34.2247 43.509 33.4436 42.7279L22.1299 31.4142C21.3489 30.6332 21.3489 29.3668 22.1299 28.5858C22.911 27.8047 24.1773 27.8047 24.9584 28.5858L36.2721 39.8995C37.0531 40.6805 37.0531 41.9469 36.2721 42.7279Z" fill="white"/>
</svg>
