<svg width="60" height="60" viewBox="0 0 60 60" fill="none" xmlns="http://www.w3.org/2000/svg">
<circle opacity="0.5" cx="30" cy="30" r="30" fill="black"/>
<path d="M23.7279 42.7279C22.9469 41.9469 22.9469 40.6805 23.7279 39.8995L35.0416 28.5858C35.8227 27.8047 37.089 27.8047 37.8701 28.5858C38.6511 29.3668 38.6511 30.6332 37.8701 31.4142L26.5563 42.7279C25.7753 43.509 24.509 43.509 23.7279 42.7279Z" fill="white"/>
<path d="M23.7279 42.7279C22.9469 41.9469 22.9469 40.6805 23.7279 39.8995L35.0416 28.5858C35.8227 27.8047 37.089 27.8047 37.8701 28.5858C38.6511 29.3668 38.6511 30.6332 37.8701 31.4142L26.5563 42.7279C25.7753 43.509 24.509 43.509 23.7279 42.7279Z" fill="white"/>
<path d="M23.7279 17.2721C24.509 16.491 25.7753 16.491 26.5563 17.2721L37.8701 28.5858C38.6511 29.3668 38.6511 30.6332 37.8701 31.4142C37.089 32.1953 35.8227 32.1953 35.0416 31.4142L23.7279 20.1005C22.9469 19.3195 22.9469 18.0531 23.7279 17.2721Z" fill="white"/>
<path d="M23.7279 17.2721C24.509 16.491 25.7753 16.491 26.5563 17.2721L37.8701 28.5858C38.6511 29.3668 38.6511 30.6332 37.8701 31.4142C37.089 32.1953 35.8227 32.1953 35.0416 31.4142L23.7279 20.1005C22.9469 19.3195 22.9469 18.0531 23.7279 17.2721Z" fill="white"/>
</svg>
